<svg width="129" height="128" viewBox="0 0 129 128" fill="none" xmlns="http://www.w3.org/2000/svg">
<path fill-rule="evenodd" clip-rule="evenodd" d="M64 86.7808L64 113.821C50.8237 113.795 41.5603 112.661 33.2152 109.367C21.8482 95.4533 30.3915 82.8071 37.5951 76.6065C38.9354 77.9284 40.4968 78.6836 42.1527 78.6836C47.0318 78.6836 51.0902 72.1274 51.0902 63.8367C51.0902 55.546 47.0321 48.9899 42.153 48.9899C37.274 48.9899 33.2152 55.546 33.2152 63.8367C33.2152 64.8926 33.281 65.9204 33.406 66.91C19.826 75.4911 14.4683 83.7793 16.3332 99.4691C11.6885 95.76 6.6316 89.7775 1.95352 84.2431L1.43734 83.6325C1.43734 73.0992 3.65586 66.7215 7.39569 57.898C-0.189516 46.9225 -0.654471 27.3396 0.444292 17.3167C17.7941 9.12617 36.1911 17.9103 44.1388 24.2452C50.3181 22.2764 56.6637 21.2758 64 21.2758V76.1636C60.3125 76.2146 56.625 76.7757 56.0555 77.6938C54.4786 80.8008 61.6771 86.0623 64 86.7808ZM53.5701 43.2698C53.2745 44.7377 51.8525 45.7368 50.0722 46.2559C49.0525 46.5532 47.9176 45.9258 46.6875 45.2457C45.7438 44.724 44.7442 44.1713 43.6974 43.9812C42.6247 43.7864 41.5799 43.9864 40.621 44.17C39.4244 44.3992 38.3616 44.6027 37.5453 43.9812C36.092 42.8748 35.1589 41.4481 35.4546 39.9801C35.7503 38.5121 37.1721 37.513 38.9524 36.9939C40.7543 36.4686 43.0692 36.381 45.4806 36.8188C47.8921 37.2567 50.009 38.1492 51.4792 39.2687C52.9323 40.3751 53.8657 41.8018 53.5701 43.2698ZM34.2082 28.2044C28.8328 23.8883 20.5647 19.4914 8.38874 25.235C7.55359 32.8485 7.49949 41.352 13.354 47.0104C18.5863 39.2342 25.7858 32.6759 34.2082 28.2044Z" fill="url(#paint0_linear_28_58)"/>
<path fill-rule="evenodd" clip-rule="evenodd" d="M74.4299 43.4487C74.7255 44.9167 76.1475 45.9157 77.9278 46.4349C78.9475 46.7322 80.0824 46.1047 81.3125 45.4246C82.2562 44.9029 83.2558 44.3502 84.3026 44.1601C85.3753 43.9653 86.4201 44.1653 87.379 44.3489C88.5756 44.5781 89.6384 44.7816 90.4547 44.1601C91.908 43.0537 92.8411 41.627 92.5454 40.159C92.2497 38.691 90.8279 37.6919 89.0476 37.1728C87.2457 36.6475 84.9308 36.5599 82.5194 36.9978C80.1079 37.4356 77.991 38.3281 76.5208 39.4477C75.0677 40.554 74.1343 41.9807 74.4299 43.4487ZM93.7918 28.3833C99.1672 24.0673 107.435 19.6704 119.611 25.4139C120.446 33.0274 120.501 41.531 114.646 47.1893C109.414 39.4131 102.214 32.8548 93.7918 28.3833Z" fill="url(#paint1_linear_28_58)"/>
<path d="M48.1114 64.7542C48.1114 70.005 45.4057 74.1572 42.153 74.1572C41.2103 74.1572 40.3137 73.8084 39.5154 73.1852C38.1245 72.0992 37.0325 70.18 36.5177 67.8208C36.3086 66.8624 36.1947 65.8314 36.1947 64.7542C36.1947 59.5034 38.9005 55.3512 42.1532 55.3512C45.4059 55.3512 48.1114 59.5034 48.1114 64.7542Z" fill="url(#paint2_linear_28_58)"/>
<path d="M79.8886 64.9331C79.8886 70.1839 82.5943 74.3361 85.847 74.3361C86.7897 74.3361 87.6863 73.9874 88.4846 73.3641C89.8756 72.2782 90.9675 70.3589 91.4823 67.9997C91.6914 67.0413 91.8053 66.0104 91.8053 64.9331C91.8053 59.6824 89.0995 55.5302 85.8468 55.5302C82.5941 55.5302 79.8886 59.6824 79.8886 64.9331Z" fill="url(#paint3_linear_28_58)"/>
<path d="M85.847 74.2651C82.5943 74.2651 79.8886 70.1054 79.8886 64.8452C79.8886 59.585 82.5941 55.4254 85.8468 55.4254C89.0995 55.4254 91.8053 59.585 91.8053 64.8452M83.8612 24.2637C91.8089 17.9174 110.206 9.11755 127.556 17.3228C128.654 27.3636 128.19 46.9816 120.604 57.9768C124.344 66.816 126.563 73.2052 126.563 83.7574M85.8473 78.7996C80.9683 78.7996 76.9098 72.2316 76.9098 63.9261C76.9098 55.6206 80.9679 49.0527 85.847 49.0527C90.726 49.0527 94.7848 55.6206 94.7848 63.9261M90.4049 76.7187C97.6085 82.9304 106.152 95.5993 94.7848 109.538M111.747 98.9137C113.353 83.7936 108.067 75.6226 94.9617 67.2389M64 86.7321C66.323 86.0122 73.5215 80.7413 71.9445 77.6287M64.3843 20.7899C71.5077 20.8239 77.7166 21.8054 83.759 23.7068C87.8016 20.5294 94.357 16.8045 102.06 14.8518C109.902 12.8636 118.964 12.7062 127.769 16.8708L128.022 16.9903L128.053 17.2684C128.606 22.3241 128.765 29.7777 127.833 37.353C126.914 44.8159 124.93 52.4565 121.171 58.0332C124.859 66.7714 127.063 73.2099 127.063 83.7574V83.9402L126.945 84.0798L126.945 84.0799L126.429 84.6915L126.404 84.7212C121.743 90.2442 116.662 96.2664 111.979 100.013L111.027 100.775L111.17 99.5635C112.095 91.7721 111.223 85.88 108.484 80.8834C105.739 75.8763 101.087 71.7068 94.3266 67.4274L94.2936 67.4064L94.2887 67.4033L94.2859 67.4015L94.2811 67.3983L94.2756 67.3947L94.2703 67.3909L94.2594 67.3831L94.2484 67.3747C94.2471 67.3737 94.2454 67.3723 94.2433 67.3706C94.2379 67.3662 94.2306 67.36 94.2257 67.3558C94.2139 67.345 94.1785 67.3079 94.1564 67.2803C94.1271 67.2285 94.1215 67.0963 94.1541 66.9495L94.0979 66.9424C94.2203 65.9719 94.2848 64.9632 94.2848 63.9261C94.2848 59.849 93.2877 56.2236 91.718 53.634C90.1423 51.0345 88.0439 49.5527 85.847 49.5527C83.6501 49.5527 81.5519 51.0345 79.9763 53.634C78.4068 56.2236 77.4098 59.849 77.4098 63.9261C77.4098 68.0031 78.4069 71.6286 79.9765 74.2182C81.5521 76.8178 83.6504 78.2996 85.8473 78.2996C87.3413 78.2996 88.7828 77.6186 90.0535 76.3631L90.3819 76.0386L90.7314 76.3401C94.3758 79.4827 98.3882 84.2808 100.04 90.0941C101.701 95.9404 100.957 102.761 95.1723 109.854L95.0899 109.955L94.9687 110.003C86.5378 113.337 77.2012 114.474 64.001 114.5C63.7249 114.501 63.5006 114.277 63.5 114.001C63.5 113.97 63.5027 113.94 63.508 113.91C63.5028 113.881 63.5 113.851 63.5 113.821L63.5 86.7321V86.3636L63.852 86.2545C64.3643 86.0957 65.2025 85.6627 66.1679 85.0262C67.1232 84.3965 68.1679 83.5908 69.0905 82.715C70.0176 81.835 70.7981 80.9061 71.2513 80.0327C71.7079 79.1529 71.7872 78.4246 71.4985 77.8547C71.4404 77.74 71.2469 77.5591 70.79 77.3697C70.3547 77.1892 69.7656 77.0358 69.0571 76.9144C67.6433 76.6722 65.8323 76.5705 64.0069 76.5958L63.5 76.6028V76.0958V21.1097C63.5 21.1075 63.5 21.1052 63.5 21.1029V20.789H63.6164C63.7081 20.6794 63.8459 20.6097 64 20.6097C64.1545 20.6097 64.2926 20.6798 64.3843 20.7899ZM64.5 87.0832L64.5 113.498C77.3216 113.445 86.3569 112.309 94.4794 109.121C99.9862 102.313 100.64 95.8659 99.0779 90.3674C97.5487 84.9847 93.8799 80.4615 90.4174 77.3937C89.0801 78.5936 87.5216 79.2996 85.8473 79.2996C83.1652 79.2996 80.7947 77.4974 79.1213 74.7366C77.4419 71.9659 76.4098 68.1546 76.4098 63.9261C76.4098 59.6976 77.4418 55.8864 79.1212 53.1157C80.7944 50.3549 83.1649 48.5527 85.847 48.5527C88.5291 48.5527 90.8997 50.3549 92.5731 53.1157C94.2526 55.8863 95.2848 59.6976 95.2848 63.9261C95.2848 64.8929 95.2309 65.8372 95.1278 66.7517C101.807 71.0115 106.535 75.2479 109.361 80.4027C112.079 85.3626 113.007 91.1173 112.296 98.4527C116.632 94.748 121.293 89.2271 125.664 84.0466L126.062 83.5749C126.037 73.2275 123.85 66.932 120.144 58.1716L120.037 57.9188L120.193 57.6928C123.918 52.293 125.917 44.7339 126.84 37.2308C127.745 29.8767 127.61 22.6351 127.089 17.6562C118.624 13.7371 109.91 13.8933 102.306 15.8211C94.6201 17.7694 88.0974 21.5209 84.1732 24.6544L83.9641 24.8214L83.7092 24.74C77.7221 22.829 71.5761 21.8352 64.5 21.7906L64.5 75.592C66.1926 75.59 67.8673 75.696 69.2259 75.9287C69.9713 76.0565 70.6414 76.2256 71.1729 76.4459C71.6828 76.6573 72.1639 76.9554 72.3905 77.4028C72.8903 78.3892 72.6612 79.4869 72.1389 80.4933C71.6133 81.5062 70.7447 82.5236 69.779 83.4403C68.8087 84.3613 67.7168 85.2029 66.7183 85.8611C65.8968 86.4027 65.1138 86.8366 64.5 87.0832ZM94.3279 67.4253L94.3296 67.4267L94.3307 67.4272L94.5939 67.0051L94.594 67.0049L94.2157 66.9572C94.1809 67.0302 94.159 67.1082 94.1576 67.1873C94.194 67.2701 94.2637 67.3668 94.2839 67.3876C94.294 67.3971 94.3105 67.4115 94.3167 67.4166L94.3279 67.4253ZM80.3886 64.8452C80.3886 67.3949 81.0453 69.6534 82.0696 71.2588C83.098 72.8707 84.4507 73.7651 85.847 73.7651C86.6602 73.7651 87.451 73.4649 88.1765 72.8975C89.4498 71.9017 90.4957 70.0973 90.9938 67.8109C91.1951 66.8866 91.3053 65.8894 91.3053 64.8452C91.3053 62.2956 90.6486 60.0371 89.6243 58.4317C88.5958 56.8198 87.243 55.9254 85.8468 55.9254C84.4505 55.9254 83.0979 56.8198 82.0695 58.4317C81.0452 60.0371 80.3886 62.2955 80.3886 64.8452ZM85.847 74.7651C83.9905 74.7651 82.3641 73.5796 81.2265 71.7966C80.0848 70.0072 79.3886 67.5557 79.3886 64.8452C79.3886 62.1347 80.0848 59.6833 81.2264 57.8938C82.3639 56.1109 83.9903 54.9254 85.8468 54.9254C87.7032 54.9254 89.3297 56.1109 90.4673 57.8938C91.6091 59.6833 92.3053 62.1347 92.3053 64.8452C92.3053 65.9594 92.1878 67.0279 91.9708 68.0238C91.4393 70.4641 90.3014 72.5052 88.7926 73.6852C87.9216 74.3664 86.9192 74.7651 85.847 74.7651ZM89.1878 36.5552L89.0563 37.0055L89.1878 36.5553C91.0242 37.0917 92.6835 38.1772 93.0356 39.9282C93.3891 41.686 92.2609 43.2864 90.7579 44.4326C90.235 44.8314 89.6452 44.9512 89.0577 44.9491C88.4935 44.9471 87.89 44.8313 87.312 44.7204L87.2848 44.7152C86.3128 44.5288 85.3587 44.3511 84.3921 44.5269C83.4408 44.7 82.5141 45.2078 81.5548 45.7391L81.5335 45.7509C80.9342 46.0829 80.3141 46.4263 79.7119 46.645C79.0985 46.8676 78.4419 46.9848 77.7876 46.7938L77.914 46.361L77.7876 46.7938C75.9513 46.2574 74.2917 45.1718 73.9397 43.4208C73.5864 41.663 74.7149 40.0627 76.2176 38.9166C77.7633 37.7375 79.9581 36.8175 82.4299 36.3679C84.902 35.9182 87.2973 36.0031 89.1878 36.5552ZM93.557 28.6714L92.8877 28.3154L93.4784 27.8403C96.1968 25.6538 99.6784 23.4202 104.046 22.4748C108.423 21.5272 113.646 21.8832 119.825 24.8032L120.078 24.9227L120.108 25.2008C120.943 32.8193 121.039 41.5757 114.994 47.4288L114.564 47.8447L114.231 47.3484C109.044 39.6254 101.906 33.1117 93.557 28.6714Z" fill="url(#paint4_linear_28_58)" stroke="#3C0F0F" stroke-linecap="round"/>
<defs>
<linearGradient id="paint0_linear_28_58" x1="5.14286" y1="19.2833" x2="102.13" y2="116.428" gradientUnits="userSpaceOnUse">
<stop stop-color="#3C0F0F"/>
<stop offset="1" stop-color="#880E0E"/>
</linearGradient>
<linearGradient id="paint1_linear_28_58" x1="5.14286" y1="19.2833" x2="102.13" y2="116.428" gradientUnits="userSpaceOnUse">
<stop stop-color="#3C0F0F"/>
<stop offset="1" stop-color="#880E0E"/>
</linearGradient>
<linearGradient id="paint2_linear_28_58" x1="5.14286" y1="19.2833" x2="102.13" y2="116.428" gradientUnits="userSpaceOnUse">
<stop stop-color="#3C0F0F"/>
<stop offset="1" stop-color="#880E0E"/>
</linearGradient>
<linearGradient id="paint3_linear_28_58" x1="5.14286" y1="19.2833" x2="102.13" y2="116.428" gradientUnits="userSpaceOnUse">
<stop stop-color="#3C0F0F"/>
<stop offset="1" stop-color="#880E0E"/>
</linearGradient>
<linearGradient id="paint4_linear_28_58" x1="5.1429" y1="19.1136" x2="102.304" y2="116.258" gradientUnits="userSpaceOnUse">
<stop stop-color="#3C0F0F"/>
<stop offset="1" stop-color="#880E0E"/>
</linearGradient>
</defs>
</svg>
